<svg height="512pt" viewBox="-63 0 512 512.00203" width="512pt" xmlns="http://www.w3.org/2000/svg"><path d="m377.175781 385.800781c-5.738281-6.671875-11.515625-13.429687-17.171875-20.085937-2.726562-3.207032-7.535156-3.597656-10.742187-.871094-3.203125 2.722656-3.597657 7.53125-.871094 10.738281 5.675781 6.679688 11.472656 13.460938 17.230469 20.15625 5.320312 6.1875 6.867187 13.410157 4.351562 20.335938-3.484375 9.589843-13.871094 16.90625-27.109375 19.09375-99.304687 16.441406-200.019531 16.441406-299.335937 0-13.234375-2.1875-23.617188-9.503907-27.097656-19.089844-2.515626-6.925781-.96875-14.148437 4.351562-20.339844 13.535156-15.738281 26.953125-31.570312 40.039062-47.214843 7.480469 15.074218 23.03125 25.46875 40.972657 25.46875 25.207031 0 45.71875-20.511719 45.71875-45.71875 0-1.90625-.132813-3.78125-.359375-5.628907 15.351562.890625 30.722656 1.34375 46.097656 1.34375 35.539062 0 71.046875-2.382812 106.117188-7.121093 9.945312 12.125 20.097656 24.371093 30.234374 36.460937 1.507813 1.796875 3.667969 2.722656 5.84375 2.722656 1.726563 0 3.464844-.582031 4.890626-1.78125 3.226562-2.703125 3.648437-7.507812.945312-10.734375-8.128906-9.691406-16.273438-19.488281-24.308594-29.242187 1.832032-.289063 3.648438-.582031 5.441406-.878907 16.234376-2.691406 29.234376-12.382812 33.917969-25.289062 3.886719-10.707031 1.605469-22.089844-6.253906-31.230469-6.839844-7.953125-13.230469-15.445312-19.480469-22.835937.054688-.90625.085938-1.8125.085938-2.730469 0-23.304687-17.535156-42.582031-40.101563-45.359375-3.335937-4.078125-6.523437-7.992188-9.605469-11.785156 4.039063-.585938 8.058594-1.207032 12.039063-1.867188 13.128906-2.171875 23.660156-10.0625 27.488281-20.59375 3.21875-8.863281 1.347656-18.269531-5.132812-25.808594-31.574219-36.707031-62.449219-74.484374-91.761719-112.28125-6.621094-8.535156-17.988281-13.632812-30.40625-13.632812s-23.785156 5.097656-30.410156 13.632812c-6.84375 8.820313-13.820313 17.703126-20.773438 26.449219-22.59375 2.753907-40.15625 22.042969-40.15625 45.367188 0 1.28125.066407 2.542969.171875 3.800781-10.339844 12.433594-20.757812 24.761719-31.007812 36.667969-6.480469 7.535156-8.347656 16.941406-5.128906 25.804687 3.828124 10.535156 14.359374 18.425782 27.480468 20.59375 3.984375.660156 8.007813 1.28125 12.042969 1.867188-9.714844 11.976562-19.585937 23.992187-29.453125 35.851562-2.691406 3.234375-2.25 8.039063.984375 10.730469 1.425781 1.1875 3.152344 1.765625 4.871094 1.765625 2.183593 0 4.351562-.9375 5.859375-2.746094 11.917968-14.324218 23.835937-28.875 35.484375-43.3125 23.25 2.671875 46.640625 4.023438 70.035156 4.023438 23.386719 0 46.78125-1.355469 70.023437-4.023438 2.878907 3.566406 5.835938 7.21875 8.90625 10.988282-18.976562 5.5625-32.878906 23.117187-32.878906 43.871093 0 25.207031 20.507813 45.71875 45.714844 45.71875 17.804688 0 33.253906-10.238281 40.800781-25.128906 4.125 4.847656 8.34375 9.78125 12.753907 14.914063 4.292968 4.984374 5.496093 10.550781 3.484374 16.089843-2.808593 7.742188-11.269531 13.664063-22.085937 15.453125-5.949219.988282-12.148437 1.9375-18.425781 2.816406-52.507813 7.390626-106.050782 9.351563-159.21875 5.871094-7.65625-14.554687-22.925782-24.507812-40.480469-24.507812-13.839844 0-26.25 6.1875-34.640625 15.929687-.226562-.035156-.449219-.070312-.675781-.109375-10.8125-1.792968-19.273438-7.710937-22.082031-15.453125-2.011719-5.539062-.808594-11.105469 3.480468-16.09375 5.835938-6.785156 11.710938-13.667969 17.46875-20.453125 2.71875-3.210937 2.324219-8.019531-.886718-10.742187-3.210938-2.722657-8.019532-2.324219-10.738282.886719-5.734375 6.757812-11.585937 13.613281-17.398437 20.375-7.859375 9.136718-10.140625 20.519531-6.253907 31.226562 4.1875 11.542969 15.03125 20.496094 28.886719 24.1875-1.859375 4.972656-2.878906 10.351562-2.878906 15.960938 0 .699218.019531 1.394531.050781 2.085937-15.226562 18.300781-30.984375 36.9375-46.902344 55.445313-8.9375 10.394531-11.535156 23.324218-7.121093 35.472656 5.359375 14.757812 20.277343 25.84375 38.933593 28.929687 32.839844 5.4375 65.820313 9.089844 98.851563 10.992188l-5.25 30.269531c-.582031 3.359375 1.136719 6.695312 4.210937 8.171875 16.855469 8.085937 35.648438 12.363281 54.351563 12.363281 18.699219 0 37.492187-4.277344 54.347656-12.363281 3.074219-1.476563 4.796875-4.8125 4.210938-8.171875l-5.25-30.269531c33.03125-1.902344 66.019531-5.558594 98.84375-10.992188 18.660156-3.085937 33.582031-14.171875 38.945312-28.929687 4.410157-12.148438 1.8125-25.082032-7.125-35.476563zm-229.59375-330.828125c16.804688 0 30.476563 13.671875 30.476563 30.476563 0 16.804687-13.671875 30.476562-30.476563 30.476562-16.808593 0-30.480469-13.671875-30.480469-30.476562 0-16.804688 13.671876-30.476563 30.480469-30.476563zm-26.789062 105.886719c-8.324219-1.011719-16.707031-2.214844-24.925781-3.582031-7.703126-1.269532-13.695313-5.394532-15.644532-10.761719-1.324218-3.640625-.507812-7.328125 2.359375-10.660156 8.136719-9.457031 16.386719-19.175781 24.613281-29.003907 7.691407 14.449219 22.902344 24.3125 40.382813 24.3125 25.207031 0 45.71875-20.507812 45.71875-45.714843 0-20.796875-13.964844-38.378907-33-43.902344 4.875-6.179687 9.738281-12.390625 14.535156-18.574219 3.761719-4.839844 10.628907-7.734375 18.371094-7.734375s14.609375 2.894531 18.367187 7.734375c29.46875 38 60.507813 75.976563 92.25 112.878906 2.867188 3.335938 3.683594 7.027344 2.363282 10.667969-1.949219 5.363281-7.945313 9.488281-15.652344 10.761719-8.214844 1.363281-16.597656 2.570312-24.921875 3.582031-48.046875 5.855469-96.769531 5.855469-144.816406-.003906zm164.175781 100.945313c-16.804688 0-30.476562-13.671876-30.476562-30.476563s13.671874-30.476563 30.476562-30.476563 30.480469 13.671876 30.480469 30.476563-13.675781 30.476563-30.480469 30.476563zm-183.171875 35.992187c16.804687 0 30.476563 13.671875 30.476563 30.476563 0 16.804687-13.671876 30.476562-30.476563 30.476562-16.808594 0-30.480469-13.671875-30.480469-30.476562 0-16.804688 13.671875-30.476563 30.480469-30.476563zm133.9375 190.4375c-13.417969 5.589844-28.007813 8.527344-42.535156 8.527344-14.523438 0-29.113281-2.9375-42.53125-8.527344l4.558593-26.269531c12.652344.515625 25.3125.777344 37.972657.777344 12.660156 0 25.320312-.261719 37.976562-.78125zm0 0"/></svg>